# xmcd CD database file
#
# Track frame offsets:
#	150
#	15142
#	29842
#	48737
#	69765
#	87150
#	104229
#	123412
#	140787
#	163825
#	186985
#	205822
#	223747
#	246750
#	268010
#
# Disc length: 3884 seconds
#
# Revision: 2
# Processed by: cddbd v1.5.2PL0 Copyright (c) Steve Scherf et al.
# Submitted via: CDex 1.70beta2
#
DISCID=e50f2a0f
DTITLE=加藤登紀子 - 加藤登紀子　ゴールデン☆ベスト　Disc1
DYEAR=1900
DGENRE=JPop
TTITLE0=ひとり寝の子守唄
TTITLE1=知床旅情
TTITLE2=琵琶湖周航の歌
TTITLE3=愛のくらし
TTITLE4=灰色の瞳
TTITLE5=リリー・マルレーン
TTITLE6=鳳仙花
TTITLE7=この空を飛べたら
TTITLE8=ＡＮＡＫ＜息子＞
TTITLE9=時代おくれの酒場
TTITLE10=難破船
TTITLE11=陽ざしの中で
TTITLE12=百万本のバラ
TTITLE13=愛さずにはいられない
TTITLE14=LOVE LOVE LOVE
EXTD=
EXTT0=
EXTT1=
EXTT2=
EXTT3=
EXTT4=
EXTT5=
EXTT6=
EXTT7=
EXTT8=
EXTT9=
EXTT10=
EXTT11=
EXTT12=
EXTT13=
EXTT14=
PLAYORDER=
